<svg xmlns="http://www.w3.org/2000/svg" width="79.688" height="26.38" viewBox="0 0 79.688 26.38">
  <g id="headline-zh-goods" transform="translate(-1543.907 -886.036)">
    <path id="Path_891" data-name="Path 891" d="M1368.261,821.739l7.331-9.4-10.28,9.563,15.938,15.938H1445l-61.6-3.028Z" transform="translate(178.595 74.58)" fill="#34333e"/>
    <path id="Path_909" data-name="Path 909" d="M9-1.812V-.725H3.862V-1.812Zm-.413-4.35v.975H3.862v-.975ZM3.862-3.925h6.225v-3.5H2.338v8.5H3.862v-.5H9v.45h1.538V-3.1H3.862ZM7.338-9.562a6.205,6.205,0,0,0-.475-1.112l-1.513.337a5.559,5.559,0,0,1,.313.775H.775v2.438H2.287V-8.163h7.825v1.038H11.7V-9.562ZM24.463-7.137v-1.45H19.337l.863-.375a14.084,14.084,0,0,0-.9-1.788l-1.462.55c.25.5.55,1.125.75,1.613H13.313v1.45h3.15C16.337-4.5,16.1-1.688,13.1-.088a4.766,4.766,0,0,1,1.087,1.225,7.383,7.383,0,0,0,3.6-5.325h3.937C21.55-1.95,21.325-.888,21-.6a.87.87,0,0,1-.612.163c-.375,0-1.25-.012-2.1-.087A3.145,3.145,0,0,1,18.813.938,17.142,17.142,0,0,0,20.975.925,1.823,1.823,0,0,0,22.313.338c.513-.538.775-1.925,1-5.312a6.082,6.082,0,0,0,.05-.65H18c.063-.512.087-1.013.125-1.512ZM28.75-5.675v1.163h5.737V-5.675H32.275v-.8h1.962V-7.6H32.275v-.825H30.862V-7.6H29v1.125h1.862v.8Zm3.888,3v1.15H30.55v-1.15ZM34.013-.412V-3.8H29.2V.262h1.35V-.412ZM36.5-9.988H26.862v4.325c0,1.825-.1,4.225-1.287,5.862a5.758,5.758,0,0,1,1.2.937c1.363-1.812,1.563-4.75,1.563-6.8v-2.95h6.675V-.575c0,.213-.088.287-.3.287s-.95.012-1.588-.025a4.743,4.743,0,0,1,.45,1.388A5.884,5.884,0,0,0,35.85.825c.488-.25.65-.612.65-1.387ZM47.987-7.075c-.075,2.838-.212,4.05-.462,4.337a.588.588,0,0,1-.5.175c-.312,0-.963,0-1.663-.05A3.38,3.38,0,0,1,45.888-1.1a12.165,12.165,0,0,0,1.837-.025,1.523,1.523,0,0,0,1.138-.638c.438-.525.563-2.062.675-6.1v-.662H46.075c.037-.637.063-1.288.075-1.938H44.537c-.012.65-.025,1.313-.05,1.938H42.125v1.45h2.25a6.32,6.32,0,0,1-2.638,4.987A4.272,4.272,0,0,1,42.8-.975c2.1-1.487,2.85-3.65,3.138-6.1ZM41.813-8.462a16.343,16.343,0,0,0-1.875-2.075l-1.15.825a14.277,14.277,0,0,1,1.763,2.2Zm-.575,2H38.325V-5h1.412v3.325A6.425,6.425,0,0,0,38.013-.3l1.1,1.5c.438-.775.975-1.625,1.338-1.625.275,0,.725.413,1.3.725a7,7,0,0,0,3.625.675c1.325,0,3.4-.087,4.325-.137a6,6,0,0,1,.45-1.65,39.048,39.048,0,0,1-4.7.313,6.825,6.825,0,0,1-3.463-.587c-.312-.175-.55-.337-.75-.475Z" transform="translate(1562 897.4)" stroke="rgba(0,0,0,0)" stroke-width="1"/>
    <path id="Path_910" data-name="Path 910" d="M2.053-1.4v-.69H3.191v2.03A8.783,8.783,0,0,1,1.857.069,1.432,1.432,0,0,1,.6-.42,2.755,2.755,0,0,1,.259-1.972,2.58,2.58,0,0,1,.615-3.508a1.427,1.427,0,0,1,1.213-.471,6.078,6.078,0,0,1,1.156.121l.207.04L3.168-3.2a10.907,10.907,0,0,0-1.13-.075,1.321,1.321,0,0,0-.618.1.622.622,0,0,0-.262.382,3.76,3.76,0,0,0-.083.955,1.925,1.925,0,0,0,.167.946.752.752,0,0,0,.69.27l.477-.023V-1.4Zm2.7.483a.673.673,0,0,0,.638.3.664.664,0,0,0,.635-.3,2.2,2.2,0,0,0,.17-1.012A2.3,2.3,0,0,0,6.02-2.967a.653.653,0,0,0-.633-.322.653.653,0,0,0-.633.322,2.3,2.3,0,0,0-.172,1.032A2.252,2.252,0,0,0,4.75-.92Zm1.892.506A1.47,1.47,0,0,1,5.388.069,1.474,1.474,0,0,1,4.131-.417a2.542,2.542,0,0,1-.365-1.521,2.627,2.627,0,0,1,.365-1.538,1.45,1.45,0,0,1,1.256-.5,1.45,1.45,0,0,1,1.256.5,2.627,2.627,0,0,1,.365,1.538A2.541,2.541,0,0,1,6.641-.414ZM8.5-.92a.673.673,0,0,0,.638.3.664.664,0,0,0,.635-.3,2.2,2.2,0,0,0,.17-1.012,2.3,2.3,0,0,0-.172-1.032.653.653,0,0,0-.632-.322.653.653,0,0,0-.633.322,2.3,2.3,0,0,0-.172,1.032A2.252,2.252,0,0,0,8.5-.92Zm1.892.506A1.47,1.47,0,0,1,9.137.069,1.474,1.474,0,0,1,7.88-.417a2.542,2.542,0,0,1-.365-1.521A2.627,2.627,0,0,1,7.88-3.476a1.45,1.45,0,0,1,1.256-.5,1.45,1.45,0,0,1,1.256.5,2.627,2.627,0,0,1,.365,1.538A2.541,2.541,0,0,1,10.39-.414ZM12.753,0H11.437V-3.91h1.317a2.748,2.748,0,0,1,.834.106.994.994,0,0,1,.509.351,1.449,1.449,0,0,1,.25.575,4.349,4.349,0,0,1,.069.86,5.036,5.036,0,0,1-.063.877,1.7,1.7,0,0,1-.239.621.994.994,0,0,1-.509.4A2.481,2.481,0,0,1,12.753,0Zm.834-1.553q.011-.184.011-.509a4.661,4.661,0,0,0-.023-.52.993.993,0,0,0-.109-.356.454.454,0,0,0-.256-.221,1.4,1.4,0,0,0-.457-.06H12.23V-.69h.523a.8.8,0,0,0,.627-.219A1.092,1.092,0,0,0,13.587-1.553Zm2.72-1.737q-.627,0-.627.414a.314.314,0,0,0,.155.282,4.033,4.033,0,0,0,.727.282,2.009,2.009,0,0,1,.8.417.983.983,0,0,1,.23.716,1.152,1.152,0,0,1-.374.932,1.462,1.462,0,0,1-.977.316,5.439,5.439,0,0,1-1.1-.138l-.207-.04.08-.615a9.572,9.572,0,0,0,1.179.1q.61,0,.61-.506a.337.337,0,0,0-.141-.288,1.994,1.994,0,0,0-.561-.224,2.286,2.286,0,0,1-.94-.451.96.96,0,0,1-.273-.727,1.056,1.056,0,0,1,.356-.874,1.515,1.515,0,0,1,.977-.287,6.5,6.5,0,0,1,1.081.115l.207.04-.063.627Q16.641-3.289,16.307-3.289Z" transform="translate(1563 905)"/>
  </g>
</svg>
