<svg xmlns="http://www.w3.org/2000/svg" width="79.688" height="26.047" viewBox="0 0 79.688 26.047">
  <g id="headline_cn_story" transform="translate(-646.786 -656.061)">
    <path id="Path_295" data-name="Path 295" d="M979.755,992.437l7.331-9.4-10.28,9.563,15.938,15.938h63.75l-61.6-3.028Z" transform="translate(-330.021 -326.426)" fill="#34333e"/>
    <g id="Group_84" data-name="Group 84" transform="translate(664.362 656.061)">
      <path id="Path_296" data-name="Path 296" d="M1015.98,985.724a13.509,13.509,0,0,1-1.54,4.684,6.1,6.1,0,0,0,2.465,1.984,5.3,5.3,0,0,0-1,1.269,6.769,6.769,0,0,1-2.4-1.984,8.815,8.815,0,0,1-2.773,1.972,6.008,6.008,0,0,0-.777-1.258h-2.847v.727h-1.357v-5.448h1.64v-1.9h-2.145V984.4h2.145v-2.256h1.467V984.4h2.021v1.368h-2.021v1.9h1.355a3.816,3.816,0,0,0-.346-.247,10.4,10.4,0,0,0,2.108-5.276l1.5.234a19.756,19.756,0,0,1-.469,1.96h3.759v1.38Zm-6.9,3.316h-1.972v1.985h1.972Zm1.393,3.057a6.447,6.447,0,0,0,2.219-1.689,14.216,14.216,0,0,1-1.061-2.786,6.5,6.5,0,0,1-.542.777c-.136-.123-.37-.333-.616-.53Zm2.1-6.373a13.627,13.627,0,0,0,1.01,3.279,11.3,11.3,0,0,0,.937-3.279Z" transform="translate(-1005.244 -982.149)"/>
      <path id="Path_297" data-name="Path 297" d="M1036.791,990.235h-1.282v2.145h-1.491v-.505H1031.8v.382c0,.727-.172,1.023-.653,1.233a6.513,6.513,0,0,1-2.182.209,4.529,4.529,0,0,0-.48-1.158c.591.024,1.319.024,1.515.024.234-.012.308-.086.308-.308v-.382h-3.747v-1.061h3.747v-.579h-4.881v-1.122h4.881v-.53h-3.648V987.6h3.648v-.542h-3.34v-2.441h3.34v-.505h-4.6v-1.159h4.6v-.8h1.491v.8h4.708v1.159H1031.8v.505h3.5v2.441h-3.5v.542h3.71v1.516h1.282Zm-6.483-4.1v-.592h-1.935v.592Zm1.491-.592v.592h2v-.592Zm0,3.574h2.219v-.53H1031.8Zm2.219,1.122H1031.8v.579h2.219Z" transform="translate(-1012.952 -982.149)"/>
    </g>
    <g id="Group_85" data-name="Group 85" transform="translate(665.631 670.71)">
      <path id="Path_298" data-name="Path 298" d="M1008.708,1006.539c-.417,0-.625.138-.625.414a.314.314,0,0,0,.155.281,4,4,0,0,0,.726.281,2,2,0,0,1,.8.417.979.979,0,0,1,.229.714,1.149,1.149,0,0,1-.373.929,1.456,1.456,0,0,1-.975.316,5.407,5.407,0,0,1-1.1-.138l-.207-.04.08-.614a9.585,9.585,0,0,0,1.176.1q.607,0,.608-.5a.336.336,0,0,0-.14-.287,1.98,1.98,0,0,0-.559-.224,2.283,2.283,0,0,1-.938-.451.956.956,0,0,1-.272-.726,1.054,1.054,0,0,1,.355-.873,1.514,1.514,0,0,1,.975-.286,6.522,6.522,0,0,1,1.078.114l.206.04-.063.625Q1009.04,1006.539,1008.708,1006.539Z" transform="translate(-1007.297 -1005.851)"/>
      <path id="Path_299" data-name="Path 299" d="M1012.216,1006.662v-.7h2.869v.7h-1.033v3.2h-.791v-3.2Z" transform="translate(-1009.176 -1005.893)"/>
      <path id="Path_300" data-name="Path 300" d="M1020.351,1009.405a1.864,1.864,0,0,1-2.508,0,2.533,2.533,0,0,1-.365-1.518,2.616,2.616,0,0,1,.365-1.535,1.817,1.817,0,0,1,2.508,0,2.625,2.625,0,0,1,.364,1.535A2.542,2.542,0,0,1,1020.351,1009.405Zm-1.888-.5a.818.818,0,0,0,1.268,0,2.2,2.2,0,0,0,.169-1.01,2.306,2.306,0,0,0-.172-1.03.781.781,0,0,0-1.263,0,2.3,2.3,0,0,0-.172,1.03A2.192,2.192,0,0,0,1018.464,1008.9Z" transform="translate(-1011.186 -1005.851)"/>
      <path id="Path_301" data-name="Path 301" d="M1024.695,1008.555v1.308h-.792v-3.9h1.515q1.378,0,1.377,1.286a1.236,1.236,0,0,1-.573,1.124l.556,1.491h-.866l-.452-1.308Zm1.153-.849a.7.7,0,0,0,.138-.453.656.656,0,0,0-.146-.448.532.532,0,0,0-.422-.167h-.723v1.24h.735A.5.5,0,0,0,1025.848,1007.706Z" transform="translate(-1013.639 -1005.893)"/>
      <path id="Path_302" data-name="Path 302" d="M1031.062,1009.863h-.792v-1.577l-1.2-2.324h.878l.718,1.555.717-1.555h.878l-1.193,2.324Z" transform="translate(-1015.611 -1005.893)"/>
    </g>
  </g>
</svg>
