<svg xmlns="http://www.w3.org/2000/svg" width="79.688" height="26.304" viewBox="0 0 79.688 26.304">
  <g id="headline-zh-songs" transform="translate(-1543.907 -745.112)">
    <path id="Path_890" data-name="Path 890" d="M1368.261,821.739l7.331-9.4-10.28,9.563,15.938,15.938H1445l-61.6-3.028Z" transform="translate(178.595 -66.42)" fill="#34333e"/>
    <path id="Path_901" data-name="Path 901" d="M2.038-3.862A40.556,40.556,0,0,1,.512.213L1.875.938c.462-1.225.962-2.7,1.362-4.063ZM3.225-6.075a20.978,20.978,0,0,0-2-1.062L.387-6.075a21.92,21.92,0,0,1,1.95,1.2ZM10.65-4.5a12.689,12.689,0,0,0,1.5-1.713l-.875-.625-.263.075H8.688c.125-.287.262-.612.387-.95h3v-1.4H9.5c.1-.4.188-.813.262-1.225l-1.425-.237A11.376,11.376,0,0,1,7.65-7.913v-.875H5.662l.925-.4a11.392,11.392,0,0,0-.925-1.5l-1.375.512a9.767,9.767,0,0,1,.787,1.387H3.263l.375-.525c-.45-.312-1.35-.825-1.962-1.15L.825-9.4A19.014,19.014,0,0,1,2.75-8.113l.5-.663v1.388h.9C4.1-4.525,3.988-1.637,2.462.1a3.545,3.545,0,0,1,1.013.962,10.1,10.1,0,0,0,1.9-5.725h.787c-.088,2.85-.212,3.887-.387,4.15a.4.4,0,0,1-.363.187,6.112,6.112,0,0,1-.863-.05A3.681,3.681,0,0,1,4.912.962,6.918,6.918,0,0,0,6.125.912,1.049,1.049,0,0,0,6.925.4c.35-.45.475-1.938.612-5.825,0-.175.012-.588.012-.588H5.463c.025-.462.037-.912.05-1.375H7.4a5.722,5.722,0,0,1-.388.613A9.338,9.338,0,0,1,8.2-6.1v.625H9.9a5.387,5.387,0,0,1-.625.588V-3.8H7.688v1.325H9.275V-.45c0,.15-.05.188-.212.188s-.725,0-1.238-.025a6.2,6.2,0,0,1,.387,1.363A4.344,4.344,0,0,0,10.087.838c.463-.225.563-.588.563-1.263v-2.05h1.463V-3.8H10.65ZM24.075-8.825a18.586,18.586,0,0,0-1.638-1.713l-1.075.788A15.225,15.225,0,0,1,22.95-7.937Zm-5.763,7.1A26.52,26.52,0,0,0,16.85-3.937a21.082,21.082,0,0,0,1.237-5.038l-.95-.325-.25.05H13.2v1.313h3.275a15.877,15.877,0,0,1-.687,2.6c-.55-.738-1.113-1.438-1.613-2.063l-1.025.85c.625.813,1.338,1.762,2,2.712A8.055,8.055,0,0,1,12.913-.962,5.5,5.5,0,0,1,13.988.25a9.249,9.249,0,0,0,2.125-2.663,17.416,17.416,0,0,1,1.05,1.75Zm4.663-4.387a11.452,11.452,0,0,1-1.625,2.75,22.238,22.238,0,0,1-.413-2.725l3.612-.45-.175-1.325-3.538.425c-.062-.962-.087-1.987-.1-3.062h-1.55c.025,1.15.075,2.225.138,3.225l-1.35.162L18.15-5.75l1.275-.162A19.288,19.288,0,0,0,20.1-2.038,9.057,9.057,0,0,1,17.688-.45,5.9,5.9,0,0,1,18.862.662,9.262,9.262,0,0,0,20.675-.6a2.973,2.973,0,0,0,2.313,1.675c.688.062,1.363-.5,1.7-2.863a5.173,5.173,0,0,1-1.25-.875c-.1,1.312-.237,1.925-.525,1.887-.4-.063-.762-.413-1.05-1A13.115,13.115,0,0,0,24.15-5.4ZM33.675-1.1V-3.175H35.25V-1.1ZM27.75-3.175h1.5V-1.1h-1.5Zm1.5-3.5v2.087h-1.5V-6.675Zm2.963,3.5V-1.1h-1.5V-3.175Zm0-3.5v2.087h-1.5V-6.675Zm3.037,0v2.087H33.675V-6.675Zm-1.575-1.45v-2.338H32.213v2.338h-1.5v-2.338H29.25v2.338h-2.9V1.05h1.4V.362h7.5v.675h1.463V-8.125Zm7.487,6.85V-2.75H46.95v1.475Zm5.788-4.35V-4.15H41.162V-5.625Zm0-2.837v1.438H41.162V-8.462Zm-7.288-1.45V.95h1.5V.175H46.95V.95h1.575V-9.912Z" transform="translate(1562 756.4)" stroke="rgba(0,0,0,0)" stroke-width="1"/>
    <path id="Path_904" data-name="Path 904" d="M1.627-3.289Q1-3.289,1-2.875a.314.314,0,0,0,.155.282,4.033,4.033,0,0,0,.727.282,2.009,2.009,0,0,1,.8.417.983.983,0,0,1,.23.716,1.152,1.152,0,0,1-.374.932,1.462,1.462,0,0,1-.977.316,5.439,5.439,0,0,1-1.1-.138L.259-.109l.08-.615a9.572,9.572,0,0,0,1.179.1q.609,0,.61-.506a.337.337,0,0,0-.141-.288,1.994,1.994,0,0,0-.561-.224,2.286,2.286,0,0,1-.94-.451.96.96,0,0,1-.273-.727,1.056,1.056,0,0,1,.356-.874,1.515,1.515,0,0,1,.977-.287,6.5,6.5,0,0,1,1.081.115l.207.04L2.771-3.2Q1.961-3.289,1.627-3.289ZM4.364-.92A.673.673,0,0,0,5-.621a.664.664,0,0,0,.635-.3,2.2,2.2,0,0,0,.17-1.012,2.3,2.3,0,0,0-.172-1.032A.653.653,0,0,0,5-3.289a.653.653,0,0,0-.633.322A2.3,2.3,0,0,0,4.2-1.935,2.252,2.252,0,0,0,4.364-.92Zm1.892.506A1.47,1.47,0,0,1,5,.069,1.474,1.474,0,0,1,3.746-.417a2.542,2.542,0,0,1-.365-1.521,2.627,2.627,0,0,1,.365-1.538A1.45,1.45,0,0,1,5-3.979a1.45,1.45,0,0,1,1.256.5,2.627,2.627,0,0,1,.365,1.538A2.541,2.541,0,0,1,6.256-.414ZM7.3,0V-3.91h1.34L9.585-.69h.057V-3.91h.793V0H9.131L8.153-3.22H8.1V0Zm5.612-1.4v-.69h1.139v2.03a8.783,8.783,0,0,1-1.334.132A1.432,1.432,0,0,1,11.463-.42a2.755,2.755,0,0,1-.342-1.552,2.58,2.58,0,0,1,.356-1.535,1.427,1.427,0,0,1,1.213-.471,6.078,6.078,0,0,1,1.156.121l.207.04L14.03-3.2a10.907,10.907,0,0,0-1.13-.075,1.321,1.321,0,0,0-.618.1.622.622,0,0,0-.262.382,3.76,3.76,0,0,0-.083.955,1.925,1.925,0,0,0,.167.946.752.752,0,0,0,.69.27l.477-.023V-1.4ZM16-3.289q-.627,0-.627.414a.314.314,0,0,0,.155.282,4.033,4.033,0,0,0,.727.282,2.009,2.009,0,0,1,.8.417.983.983,0,0,1,.23.716,1.152,1.152,0,0,1-.374.932,1.462,1.462,0,0,1-.977.316,5.439,5.439,0,0,1-1.1-.138l-.207-.04.08-.615a9.572,9.572,0,0,0,1.179.1q.61,0,.61-.506a.337.337,0,0,0-.141-.288,1.994,1.994,0,0,0-.561-.224,2.286,2.286,0,0,1-.94-.451.96.96,0,0,1-.273-.727,1.056,1.056,0,0,1,.356-.874,1.515,1.515,0,0,1,.977-.287A6.5,6.5,0,0,1,17-3.864l.207.04-.063.627Q16.336-3.289,16-3.289Z" transform="translate(1563 764)"/>
  </g>
</svg>
